# This file uses centimeters as units for non-parametric coordinates.

mtllib lightbox.mtl
g default
v -100.968436 46.780093 158.484310
v 100.968436 46.780093 158.484310
v -100.968436 46.780093 -158.484310
v 100.968436 46.780093 -158.484310
v -100.968436 4.165550 -158.484310
v 100.968436 4.165550 -158.484310
v 100.968436 46.780093 -68.495399
v 100.968436 4.165550 -68.495399
v -100.968436 46.780093 -79.061445
v -100.968436 4.165550 -79.061445
v -100.968436 1.037903 158.484310
v 100.968436 1.037903 158.484310
v -100.968436 1.037903 -155.199900
v 100.968436 1.037903 -155.199900
v -100.968436 46.780093 12.436924
v -100.968436 1.037903 12.436924
v -101.968432 47.780094 159.484306
v 100.968436 47.780094 159.484306
v 101.968432 47.780094 -159.484306
v -101.968432 47.780094 -159.484306
v 101.968432 4.165550 -159.484306
v -101.968432 4.165550 -159.484306
v 101.968432 46.780093 -68.495399
v 101.968432 4.165550 -68.495399
v -101.968432 4.165550 -79.061445
v -101.968432 46.780093 -79.061445
v -101.968432 0.037902 159.484306
v 100.968436 0.037902 159.484306
v -100.968436 0.037902 -155.199900
v 100.968436 0.037902 -155.199900
v -101.968432 46.780093 12.436924
v -101.968432 1.037903 12.436924
vt 0.000000 0.000000
vt 1.000000 0.000000
vt 0.000000 1.000000
vt 1.000000 1.000000
vt 0.000000 0.000000
vt 1.000000 0.000000
vt 1.000000 1.000000
vt 0.000000 1.000000
vt 0.000000 0.000000
vt 1.000000 0.000000
vt 1.000000 1.000000
vt 0.000000 1.000000
vt 0.000000 0.000000
vt 1.000000 0.000000
vt 1.000000 1.000000
vt 0.000000 1.000000
vt 0.000000 0.000000
vt 1.000000 0.000000
vt 1.000000 1.000000
vt 0.000000 1.000000
vt 0.000000 0.000000
vt 1.000000 0.000000
vt 1.000000 1.000000
vt 0.000000 1.000000
vt 0.000000 0.000000
vt 1.000000 0.000000
vt 1.000000 1.000000
vt 0.000000 1.000000
vt 0.000000 0.000000
vt 1.000000 0.000000
vt 1.000000 1.000000
vt 0.000000 1.000000
vt 0.000000 0.000000
vt 1.000000 0.000000
vt 1.000000 1.000000
vt 0.000000 1.000000
vt 0.000000 0.000000
vt 1.000000 0.000000
vt 1.000000 1.000000
vt 0.000000 1.000000
vt 0.000000 0.000000
vt 1.000000 0.000000
vt 1.000000 1.000000
vt 0.000000 1.000000
vt 0.000000 0.000000
vt 1.000000 0.000000
vt 1.000000 1.000000
vt 0.000000 1.000000
vt 0.000000 0.000000
vt 1.000000 0.000000
vt 1.000000 1.000000
vt 0.000000 1.000000
vt 0.000000 0.000000
vt 1.000000 0.000000
vt 1.000000 1.000000
vt 0.000000 1.000000
vt 1.000000 0.000000
vt 1.000000 1.000000
vt 0.000000 1.000000
vt 0.000000 0.000000
vt 1.000000 1.000000
vt 0.000000 1.000000
vt 1.000000 0.000000
vt 1.000000 1.000000
vt 0.000000 1.000000
vt 0.000000 0.000000
vt 1.000000 0.000000
vt 1.000000 1.000000
vt 0.000000 1.000000
vt 0.000000 0.000000
vt 0.000000 1.000000
vt 0.000000 0.000000
vt 1.000000 0.000000
vt 1.000000 1.000000
vt 0.000000 1.000000
vt 0.000000 0.000000
vt 1.000000 0.000000
vt 1.000000 1.000000
vt 0.000000 1.000000
vt 0.000000 0.000000
vn 0.000000 1.000000 -0.000000
vn 0.000000 1.000000 -0.000000
vn 0.000000 1.000000 -0.000000
vn 0.000000 1.000000 -0.000000
vn 0.000000 0.000000 -1.000000
vn 0.000000 0.000000 -1.000000
vn 0.000000 0.000000 -1.000000
vn 0.000000 0.000000 -1.000000
vn 1.000000 0.000000 0.000000
vn 1.000000 0.000000 0.000000
vn 1.000000 0.000000 0.000000
vn 1.000000 0.000000 0.000000
vn -1.000000 0.000000 0.000000
vn -1.000000 0.000000 0.000000
vn -1.000000 0.000000 0.000000
vn -1.000000 0.000000 0.000000
vn 0.000000 0.000000 1.000000
vn 0.000000 0.000000 1.000000
vn 0.000000 0.000000 1.000000
vn 0.000000 0.000000 1.000000
vn 0.000000 -1.000000 0.000000
vn 0.000000 -1.000000 0.000000
vn 0.000000 -1.000000 0.000000
vn 0.000000 -1.000000 0.000000
vn -1.000000 0.000000 0.000000
vn -1.000000 0.000000 0.000000
vn -1.000000 0.000000 0.000000
vn -1.000000 0.000000 0.000000
vn 0.000000 -1.000000 0.000000
vn 0.000000 -1.000000 0.000000
vn 0.000000 -1.000000 0.000000
vn 0.000000 -1.000000 0.000000
vn 0.000000 0.000000 1.000000
vn 0.000000 0.000000 1.000000
vn 0.000000 0.000000 1.000000
vn 0.000000 0.000000 1.000000
vn -1.000000 0.000000 0.000000
vn -1.000000 0.000000 0.000000
vn -1.000000 0.000000 0.000000
vn -1.000000 0.000000 0.000000
vn 1.000000 0.000000 0.000000
vn 1.000000 0.000000 0.000000
vn 1.000000 0.000000 0.000000
vn 1.000000 0.000000 0.000000
vn 0.000000 0.000000 -1.000000
vn 0.000000 0.000000 -1.000000
vn 0.000000 0.000000 -1.000000
vn 0.000000 0.000000 -1.000000
vn 0.000000 1.000000 0.000000
vn 0.000000 1.000000 0.000000
vn 0.000000 1.000000 0.000000
vn 0.000000 1.000000 0.000000
vn 1.000000 0.000000 0.000000
vn 1.000000 0.000000 0.000000
vn 1.000000 0.000000 0.000000
vn 1.000000 0.000000 0.000000
vn 0.916689 -0.399600 0.001257
vn 0.894427 -0.447211 0.001406
vn 0.894427 -0.447211 0.001406
vn 0.916688 -0.399601 0.001257
vn -0.707108 -0.707105 0.000000
vn -0.707108 -0.707105 0.000000
vn -0.707108 -0.707105 0.000000
vn -0.707108 -0.707105 0.000000
vn 0.000000 -1.000000 -0.000000
vn 0.000000 -1.000000 -0.000000
vn 0.000000 -1.000000 -0.000000
vn 0.000000 -1.000000 -0.000000
vn -0.445229 0.895403 0.004948
vn -0.445229 0.895403 0.004948
vn -0.445229 0.895403 0.004948
vn -0.445229 0.895403 0.004948
vn 0.000000 0.000000 1.000000
vn 0.000000 0.000000 1.000000
vn 0.000000 0.000000 1.000000
vn 0.000000 0.000000 1.000000
vn 0.000000 -1.000000 0.000000
vn 0.000000 -1.000000 0.000000
vn 0.000000 -1.000000 0.000000
vn 0.000000 -1.000000 0.000000
vn 0.000000 0.000000 1.000000
vn 0.000000 0.000000 1.000000
vn 0.000000 0.000000 1.000000
vn 0.000000 0.000000 1.000000
vn 0.444967 0.895529 0.005602
vn 0.444967 0.895529 0.005602
vn 0.444967 0.895529 0.005602
vn 0.444967 0.895529 0.005602
vn 1.000000 0.000000 0.000000
vn 1.000000 0.000000 0.000000
vn -0.894714 0.446638 -0.001424
vn -0.894714 0.446638 -0.001424
vn -0.894714 0.446638 -0.001424
vn -0.894714 0.446638 -0.001424
vn 0.000000 0.000000 -1.000000
vn 0.000000 0.000000 -1.000000
vn 0.000000 0.000000 -1.000000
vn 0.000000 0.000000 -1.000000
vn 1.000000 0.000000 0.000000
vn 1.000000 0.000000 0.000000
vn 0.445990 0.895033 -0.003054
vn 0.445990 0.895033 -0.003054
vn 0.445990 0.895033 -0.003054
vn 0.445990 0.895033 -0.003054
vn 0.000000 0.000000 -1.000000
vn 0.000000 0.000000 -1.000000
vn 0.000000 0.000000 -1.000000
vn 0.000000 0.000000 -1.000000
vn 0.445990 -0.895033 -0.003054
vn 0.445990 -0.895033 -0.003054
vn 0.445990 -0.895033 -0.003054
vn 0.445990 -0.895033 -0.003054
s off
g pPlane4
usemtl initialShadingGroup
f 17/60/1 18/57/2 19/58/3 20/59/4
f 20/5/5 19/6/6 21/61/7 22/62/8
f 21/66/9 19/63/10 23/64/11 24/65/12
f 20/70/13 22/67/14 25/68/15 26/69/16
f 18/72/17 17/18/18 27/19/19 28/71/20
f 28/76/21 27/73/22 29/74/23 30/75/24
f 27/80/25 17/77/26 31/78/27 32/79/28
f 1/29/29 3/32/30 4/31/31 2/30/32
f 3/33/33 5/36/34 6/35/35 4/34/36
f 6/37/37 8/40/38 7/39/39 4/38/40
f 3/41/41 9/44/42 10/43/43 5/42/44
f 2/45/45 12/48/46 11/47/47 1/46/48
f 12/49/49 14/52/50 13/51/51 11/50/52
f 11/53/53 16/56/54 15/55/55 1/54/56
s 1
f 2/2/57 4/4/58 19/58/59 18/57/60
s off
f 3/3/61 1/1/62 17/60/63 20/59/64
s 2
f 6/7/65 5/8/66 22/62/67 21/61/68
s off
f 4/10/69 7/11/70 23/64/71 19/63/72
f 7/11/73 8/12/74 24/65/75 23/64/76
s 2
f 8/12/77 6/9/65 21/66/68 24/65/78
f 5/14/66 10/15/79 25/68/80 22/67/67
s off
f 10/15/81 9/16/82 26/69/83 25/68/84
f 9/16/85 3/13/86 20/70/87 26/69/88
s 1
f 12/20/89 2/17/57 18/72/60 28/71/90
s off
f 11/22/91 13/23/92 29/74/93 27/73/94
f 13/23/95 14/24/96 30/75/97 29/74/98
s 1
f 14/24/99 12/21/89 28/76/90 30/75/100
s off
f 1/26/101 15/27/102 31/78/103 17/77/104
f 15/27/105 16/28/106 32/79/107 31/78/108
f 16/28/109 11/25/110 27/80/111 32/79/112
