# This file uses centimeters as units for non-parametric coordinates.

mtllib glow_card.v1.mtl
g default
v -0.830869 -0.830869 0.020479
v 0.830869 -0.830869 0.020479
v -0.830869 0.830869 0.020479
v 0.830869 0.830869 0.020479
vt 0.000000 0.000000
vt 1.000000 0.000000
vt 0.000000 1.000000
vt 1.000000 1.000000
vn 0.000000 0.000000 1.000000
vn 0.000000 0.000000 1.000000
vn 0.000000 0.000000 1.000000
vn 0.000000 0.000000 1.000000
s off
g exp:pPlane2 group1
usemtl exp:lambert3SG
f 1/1/1 2/2/2 4/4/3 3/3/4
