# This file uses centimeters as units for non-parametric coordinates.

mtllib test.mtl
g skinCluster1Set tweakSet1
v 5.736190 1.670106 4.578773
v 5.026883 1.701110 3.831212
v 5.614303 2.703079 4.737289
v 4.904995 2.734082 3.989732
v 3.159909 2.772322 -7.265611
v 3.759597 2.761482 -7.798329
v 3.202110 1.972128 -7.201829
v 3.801784 1.961282 -7.734575
v 3.918983 3.353297 -0.470679
v 4.036089 1.861637 -0.443883
v 5.463693 1.976700 -0.019704
v 5.333704 3.468649 -0.060026
v 4.818365 3.053666 -5.175529
v 4.884920 2.148853 -5.141747
v 5.707275 2.194522 -5.353237
v 5.640197 3.099120 -5.388480
v 3.791921 2.504707 5.553541
v 3.945967 1.198997 5.353296
v 4.074303 1.367218 4.355993
v 3.920258 2.672929 4.556235
v 2.063073 2.714611 3.605380
v 2.239117 1.192851 3.385154
v 3.385137 1.318551 3.448305
v 3.210965 2.839543 3.674969
v 5.042858 2.587551 5.355388
v 5.175365 1.464555 5.183069
v 4.768087 1.549146 4.318662
v 4.635580 2.672142 4.490983
v 4.521018 3.218029 -3.342769
v 4.620526 1.949512 -3.282507
v 5.889955 2.059217 -3.237282
v 5.767523 3.325640 -3.302861
v 4.152916 2.932774 -6.184844
v 4.197517 2.095769 -6.119995
v 4.831783 2.088078 -6.649068
v 4.787666 2.925225 -6.713173
v 2.359799 2.522060 4.755083
v 2.528155 1.094626 4.536448
v 3.334111 1.264174 4.051848
v 3.165758 2.691610 4.270470
v 4.729174 3.075894 -4.689156
v 4.805316 2.105850 -4.663263
v 5.750055 2.179441 -4.724223
v 5.667575 3.148794 -4.751416
v 3.007002 3.167738 1.664965
v 3.158336 1.604423 1.507107
v 4.578580 1.679242 2.115977
v 4.421801 3.242172 2.275134
vt 0.375000 0.000000
vt 0.625000 0.000000
vt 0.375000 0.250000
vt 0.625000 0.250000
vt 0.375000 0.500000
vt 0.625000 0.500000
vt 0.375000 0.750000
vt 0.625000 0.750000
vt 0.375000 1.000000
vt 0.625000 1.000000
vt 0.875000 0.000000
vt 0.875000 0.250000
vt 0.125000 0.000000
vt 0.125000 0.250000
vt 0.265217 0.250000
vt 0.375000 0.359783
vt 0.265217 0.000000
vt 0.375000 0.890217
vt 0.625000 0.890217
vt 0.734783 0.000000
vt 0.625000 0.359783
vt 0.734783 0.250000
vt 0.202983 0.250000
vt 0.375000 0.422017
vt 0.202983 0.000000
vt 0.375000 0.827983
vt 0.625000 0.827983
vt 0.797017 0.000000
vt 0.625000 0.422017
vt 0.797017 0.250000
vt 0.331923 0.250000
vt 0.375000 0.293077
vt 0.331923 0.000000
vt 0.375000 0.956923
vt 0.625000 0.956923
vt 0.668077 0.000000
vt 0.625000 0.293077
vt 0.668077 0.250000
vt 0.300196 0.250000
vt 0.375000 0.324804
vt 0.300196 0.000000
vt 0.375000 0.925196
vt 0.625000 0.925196
vt 0.699804 0.000000
vt 0.625000 0.324804
vt 0.699804 0.250000
vt 0.357736 0.250000
vt 0.375000 0.267264
vt 0.357736 0.000000
vt 0.375000 0.982736
vt 0.625000 0.982736
vt 0.642264 0.000000
vt 0.625000 0.267264
vt 0.642264 0.250000
vt 0.235286 0.250000
vt 0.375000 0.389714
vt 0.235286 0.000000
vt 0.375000 0.860286
vt 0.625000 0.860286
vt 0.764714 0.000000
vt 0.625000 0.389714
vt 0.764714 0.250000
vt 0.160607 0.250000
vt 0.375000 0.464393
vt 0.160607 0.000000
vt 0.375000 0.785607
vt 0.625000 0.785607
vt 0.839393 0.000000
vt 0.625000 0.464393
vt 0.839393 0.250000
vt 0.315254 0.250000
vt 0.375000 0.309746
vt 0.315254 0.000000
vt 0.375000 0.940254
vt 0.625000 0.940254
vt 0.684746 0.000000
vt 0.625000 0.309746
vt 0.684746 0.250000
vt 0.215649 0.250000
vt 0.375000 0.409351
vt 0.215649 0.000000
vt 0.375000 0.840649
vt 0.625000 0.840649
vt 0.784351 0.000000
vt 0.625000 0.409351
vt 0.784351 0.250000
vt 0.283822 0.250000
vt 0.375000 0.341178
vt 0.283822 0.000000
vt 0.375000 0.908822
vt 0.625000 0.908822
vt 0.716178 0.000000
vt 0.625000 0.341178
vt 0.716178 0.250000
vn 0.716410 0.187654 -0.671969
vn 0.716410 0.187654 -0.671969
vn 0.716410 0.187654 -0.671969
vn 0.716410 0.187654 -0.671969
vn -0.059650 0.991866 0.112446
vn -0.059650 0.991866 0.112446
vn -0.026740 0.990456 0.135213
vn -0.054543 0.991751 0.115995
vn -0.662142 -0.094160 -0.743439
vn -0.662142 -0.094160 -0.743439
vn -0.662142 -0.094160 -0.743439
vn -0.662142 -0.094160 -0.743439
vn 0.178427 -0.966797 -0.182940
vn 0.201071 -0.965338 -0.166411
vn 0.171360 -0.967095 -0.188049
vn 0.171360 -0.967095 -0.188049
vn -0.878834 -0.030633 -0.476143
vn -0.387698 0.094913 -0.916887
vn -0.471869 0.079037 -0.878119
vn -0.878834 -0.030633 -0.476143
vn 0.366286 -0.098726 0.925250
vn 0.735759 -0.017074 0.677028
vn 0.735759 -0.017074 0.677028
vn 0.400271 -0.092640 0.911702
vn -0.978083 -0.082964 -0.190971
vn -0.949161 -0.073214 -0.306159
vn -0.949896 -0.073446 -0.303815
vn -0.977785 -0.082964 -0.192493
vn 0.085111 -0.996159 -0.020597
vn 0.083775 -0.995290 -0.048781
vn 0.086555 -0.996046 -0.020013
vn 0.097692 -0.991797 -0.082431
vn 0.963222 0.084467 0.255086
vn 0.962601 0.084240 0.257494
vn 0.990846 0.094361 0.096541
vn 0.989944 0.094614 0.105166
vn -0.085161 0.995560 0.040087
vn -0.074646 0.995984 -0.049428
vn -0.077372 0.993705 -0.081022
vn -0.074492 0.995223 -0.063108
vn -0.778982 -0.001644 0.627044
vn -0.944658 -0.044830 0.324979
vn -0.945823 -0.045138 0.321530
vn -0.783556 -0.003430 0.621312
vn 0.046571 -0.996462 0.069958
vn 0.045729 -0.998126 0.040651
vn 0.058040 -0.997487 -0.040629
vn 0.049495 -0.998671 0.014355
vn 0.931519 0.046234 -0.360742
vn 0.916198 0.041725 -0.398548
vn 0.783703 0.003407 -0.621127
vn 0.790209 0.005680 -0.612811
vn -0.070312 0.994486 -0.077804
vn -0.075765 0.994644 -0.070311
vn -0.067130 0.994343 -0.082313
vn -0.063080 0.993976 -0.089621
vn -0.705786 -0.187140 0.683260
vn -0.235870 -0.174396 0.956008
vn -0.248213 -0.175343 0.952704
vn -0.812172 -0.179589 0.555090
vn 0.129094 -0.986122 -0.104396
vn 0.145943 -0.982538 -0.115410
vn 0.193366 -0.969400 -0.151237
vn 0.169300 -0.976659 -0.132189
vn 0.179636 0.169747 -0.968977
vn 0.173233 0.169187 -0.970240
vn 0.688464 0.187929 -0.700500
vn 0.911350 0.164190 -0.377470
vn -0.059292 0.984054 0.167699
vn -0.039607 0.987644 0.151628
vn -0.083754 0.978568 0.188123
vn -0.099919 0.974283 0.201965
vn -0.902015 -0.049868 -0.428815
vn -0.984451 -0.094147 -0.148296
vn -0.944197 -0.063978 -0.323107
vn -0.904703 -0.053342 -0.422690
vn 0.115743 -0.981887 -0.150006
vn 0.100483 -0.990317 -0.095787
vn 0.118859 -0.981038 -0.153091
vn 0.121172 -0.982843 -0.139058
vn 0.780370 0.006010 0.625289
vn 0.868031 0.033345 0.495390
vn 0.848060 0.035051 0.528740
vn 0.868877 0.044287 0.493044
vn -0.114119 0.976007 0.185441
vn -0.119375 0.977114 0.176061
vn -0.089271 0.993967 0.063719
vn -0.118128 0.980023 0.159999
vn -0.985709 -0.082513 -0.146868
vn -0.985682 -0.082497 -0.147057
vn 0.080147 -0.992551 -0.091755
vn 0.079317 -0.992771 -0.090083
vn 0.993202 0.085888 -0.078564
vn 0.993035 0.086464 -0.080035
vn -0.082188 0.990610 -0.109258
vn -0.082661 0.990094 -0.113496
vn -0.736975 0.014021 0.675774
vn -0.736976 0.014021 0.675774
vn 0.046616 -0.996346 0.071565
vn 0.046616 -0.996346 0.071565
vn 0.726616 -0.015338 -0.686872
vn 0.726616 -0.015338 -0.686873
vn -0.062745 0.993943 -0.090225
vn -0.062745 0.993943 -0.090225
s off
g pCube1
usemtl initialShadingGroup
f 1/1/1 2/2/2 4/4/3 3/3/4
s 1
f 3/3/5 4/4/6 28/53/7 25/48/8
s off
f 5/5/9 6/6/10 8/8/11 7/7/12
s 2
f 26/50/13 27/51/14 2/10/15 1/9/16
s 3
f 2/2/17 27/52/18 28/54/19 4/4/20
s 4
f 26/49/21 1/1/22 3/3/23 25/47/24
f 30/57/25 10/17/26 9/15/27 29/55/28
s 2
f 30/58/29 31/59/30 11/19/31 10/18/32
s 3
f 12/22/33 11/20/34 31/60/35 32/62/36
s 1
f 9/16/37 12/21/38 32/61/39 29/56/40
s 4
f 34/65/41 14/25/42 13/23/43 33/63/44
s 2
f 34/66/45 35/67/46 15/27/47 14/26/48
s 3
f 16/30/49 15/28/50 35/68/51 36/70/52
s 1
f 13/24/53 16/29/54 36/69/55 33/64/56
s 4
f 38/73/57 18/33/58 17/31/59 37/71/60
s 2
f 38/74/61 39/75/62 19/35/63 18/34/64
s 3
f 20/38/65 19/36/66 39/76/67 40/78/68
s 1
f 17/32/69 20/37/70 40/77/71 37/72/72
s 4
f 46/89/73 22/41/74 21/39/75 45/87/76
s 2
f 46/90/77 47/91/78 23/43/79 22/42/80
s 3
f 24/46/81 23/44/82 47/92/83 48/94/84
s 1
f 21/40/85 24/45/86 48/93/87 45/88/88
s 4
f 18/33/58 26/49/21 25/47/24 17/31/59
s 2
f 18/34/64 19/35/63 27/51/14 26/50/13
s 3
f 28/54/19 27/52/18 19/36/66 20/38/65
s 1
f 25/48/8 28/53/7 20/37/70 17/32/69
s 4
f 42/81/89 30/57/25 29/55/28 41/79/90
s 2
f 42/82/91 43/83/92 31/59/30 30/58/29
s 3
f 32/62/36 31/60/35 43/84/93 44/86/94
s 1
f 29/56/40 32/61/39 44/85/95 41/80/96
s 4
f 7/13/97 34/65/41 33/63/44 5/14/98
s 2
f 7/7/99 8/8/100 35/67/46 34/66/45
s 3
f 36/70/52 35/68/51 8/11/101 6/12/102
s 1
f 33/64/56 36/69/55 6/6/103 5/5/104
s 4
f 22/41/74 38/73/57 37/71/60 21/39/75
s 2
f 22/42/80 23/43/79 39/75/62 38/74/61
s 3
f 40/78/68 39/76/67 23/44/82 24/46/81
s 1
f 37/72/72 40/77/71 24/45/86 21/40/85
s 4
f 14/25/42 42/81/89 41/79/90 13/23/43
s 2
f 14/26/48 15/27/47 43/83/92 42/82/91
s 3
f 44/86/94 43/84/93 15/28/50 16/30/49
s 1
f 41/80/96 44/85/95 16/29/54 13/24/53
s 4
f 10/17/26 46/89/73 45/87/76 9/15/27
s 2
f 10/18/32 11/19/31 47/91/78 46/90/77
s 3
f 48/94/84 47/92/83 11/20/34 12/22/33
s 1
f 45/88/88 48/93/87 12/21/38 9/16/37
